<svg width="25" height="25" viewBox="0 0 25 25" fill="none" xmlns="http://www.w3.org/2000/svg">
<path d="M2.78833 20.3403H22.7536V22.3369H2.78833V20.3403ZM4.78486 12.3542H6.78139V19.3421H4.78486V12.3542ZM9.77618 12.3542H11.7727V19.3421H9.77618V12.3542ZM13.7692 12.3542H15.7658V19.3421H13.7692V12.3542ZM18.7606 12.3542H20.7571V19.3421H18.7606V12.3542ZM2.78833 7.3629L12.771 2.37158L22.7536 7.3629V11.356H2.78833V7.3629ZM4.78486 8.59676V9.35943H20.7571V8.59676L12.771 4.6037L4.78486 8.59676ZM12.771 8.36117C12.5062 8.36117 12.2523 8.25599 12.0651 8.06878C11.8779 7.88157 11.7727 7.62766 11.7727 7.3629C11.7727 7.09815 11.8779 6.84423 12.0651 6.65702C12.2523 6.46981 12.5062 6.36464 12.771 6.36464C13.0357 6.36464 13.2896 6.46981 13.4768 6.65702C13.6641 6.84423 13.7692 7.09815 13.7692 7.3629C13.7692 7.62766 13.6641 7.88157 13.4768 8.06878C13.2896 8.25599 13.0357 8.36117 12.771 8.36117Z" fill="#1A1E24"/>
</svg>
