<svg xmlns="http://www.w3.org/2000/svg"  viewBox="0 0 72 72" width="64px" height="64px" baseProfile="basic"><path d="M34.413,44c-0.53,0-1.039-0.211-1.414-0.586l-6.517-6.517c-0.781-0.781-0.781-2.047,0-2.828	c0.781-0.781,2.047-0.781,2.828,0l5.103,5.103l9.121-9.121c0.781-0.781,2.047-0.781,2.828,0c0.781,0.781,0.781,2.047,0,2.828	L35.827,43.414C35.452,43.789,34.943,44,34.413,44z"/><path fill="#060000" d="M36,60c-13.234,0-24-10.766-24-24s10.766-24,24-24s24,10.766,24,24S49.234,60,36,60z M36,20.002	c-8.821,0-15.998,7.176-15.998,15.998S27.179,51.998,36,51.998S51.998,44.821,51.998,36S44.821,20.002,36,20.002z"/></svg>