<svg width="25" height="25" viewBox="0 0 25 25" fill="none" xmlns="http://www.w3.org/2000/svg">
<path d="M20.1476 22.3105H6.12517C5.32824 22.3105 4.56396 21.9939 4.00045 21.4304C3.43694 20.8669 3.12036 20.1026 3.12036 19.3057V5.28325C3.12036 4.48633 3.43694 3.72204 4.00045 3.15853C4.56396 2.59502 5.32824 2.27844 6.12517 2.27844H20.1476C20.4132 2.27844 20.668 2.38397 20.8558 2.5718C21.0437 2.75964 21.1492 3.0144 21.1492 3.28004V21.3089C21.1492 21.5745 21.0437 21.8293 20.8558 22.0171C20.668 22.205 20.4132 22.3105 20.1476 22.3105ZM19.146 20.3073V18.3041H6.12517C5.85953 18.3041 5.60477 18.4096 5.41693 18.5974C5.22909 18.7853 5.12357 19.04 5.12357 19.3057C5.12357 19.5713 5.22909 19.8261 5.41693 20.0139C5.60477 20.2018 5.85953 20.3073 6.12517 20.3073H19.146ZM5.12357 16.4712C5.43707 16.361 5.77461 16.3009 6.12517 16.3009H19.146V4.28165H6.12517C5.85953 4.28165 5.60477 4.38717 5.41693 4.57501C5.22909 4.76285 5.12357 5.01761 5.12357 5.28325V16.4712ZM12.1348 10.2913C11.6035 10.2913 11.094 10.0802 10.7183 9.70454C10.3426 9.32886 10.1316 8.81934 10.1316 8.28806C10.1316 7.75677 10.3426 7.24725 10.7183 6.87158C11.094 6.4959 11.6035 6.28485 12.1348 6.28485C12.6661 6.28485 13.1756 6.4959 13.5513 6.87158C13.9269 7.24725 14.138 7.75677 14.138 8.28806C14.138 8.81934 13.9269 9.32886 13.5513 9.70454C13.1756 10.0802 12.6661 10.2913 12.1348 10.2913ZM9.12998 14.2977C9.12998 13.5007 9.44655 12.7365 10.0101 12.173C10.5736 11.6094 11.3379 11.2929 12.1348 11.2929C12.9317 11.2929 13.696 11.6094 14.2595 12.173C14.823 12.7365 15.1396 13.5007 15.1396 14.2977H9.12998Z" fill="#1A1E24"/>
</svg>
