<svg width="25" height="25" viewBox="0 0 25 25" fill="none" xmlns="http://www.w3.org/2000/svg">
<path d="M22.5219 12.7964L18.5219 8.79639V11.7964H10.5219V13.7964H18.5219V16.7964M20.5219 18.7964C19.2626 20.4754 17.5069 21.7157 15.5036 22.3415C13.5002 22.9673 11.3508 22.9469 9.35963 22.2832C7.36851 21.6195 5.63669 20.3461 4.40949 18.6435C3.18229 16.9408 2.52191 14.8952 2.52191 12.7964C2.52191 10.6976 3.18229 8.65194 4.40949 6.94928C5.63669 5.24663 7.36851 3.97326 9.35963 3.30955C11.3508 2.64585 13.5002 2.62545 15.5036 3.25125C17.5069 3.87705 19.2626 5.11733 20.5219 6.79639H17.7919C16.6372 5.77805 15.2132 5.11453 13.6908 4.88544C12.1683 4.65636 10.6121 4.87144 9.20891 5.50488C7.80567 6.13833 6.61503 7.16322 5.77984 8.45657C4.94466 9.74993 4.50041 11.2568 4.50041 12.7964C4.50041 14.336 4.94466 15.8428 5.77984 17.1362C6.61503 18.4296 7.80567 19.4544 9.20891 20.0879C10.6121 20.7213 12.1683 20.9364 13.6908 20.7073C15.2132 20.4782 16.6372 19.8147 17.7919 18.7964H20.5219Z" fill="#3B180D" fill-opacity="0.85"/>
</svg>
