<svg width="23" height="20" viewBox="0 0 23 20" fill="none" xmlns="http://www.w3.org/2000/svg">
<path d="M11.0585 6.68152L14.2285 9.84152C14.2285 9.79152 14.2285 9.73152 14.2285 9.68152C14.2285 8.88587 13.9124 8.12281 13.3498 7.5602C12.7872 6.99759 12.0242 6.68152 11.2285 6.68152C11.1685 6.68152 11.1185 6.68152 11.0585 6.68152ZM6.75852 7.48152L8.30852 9.03152C8.25852 9.24152 8.22852 9.45152 8.22852 9.68152C8.22852 10.4772 8.54459 11.2402 9.10719 11.8028C9.6698 12.3654 10.4329 12.6815 11.2285 12.6815C11.4485 12.6815 11.6685 12.6515 11.8785 12.6015L13.4285 14.1515C12.7585 14.4815 12.0185 14.6815 11.2285 14.6815C9.90243 14.6815 8.63066 14.1547 7.69298 13.2171C6.7553 12.2794 6.22852 11.0076 6.22852 9.68152C6.22852 8.89152 6.42852 8.15152 6.75852 7.48152ZM1.22852 1.95152L3.50852 4.23152L3.95852 4.68152C2.30852 5.98152 1.00852 7.68152 0.228516 9.68152C1.95852 14.0715 6.22852 17.1815 11.2285 17.1815C12.7785 17.1815 14.2585 16.8815 15.6085 16.3415L16.0385 16.7615L18.9585 19.6815L20.2285 18.4115L2.49852 0.681519M11.2285 4.68152C12.5546 4.68152 13.8264 5.2083 14.764 6.14598C15.7017 7.08367 16.2285 8.35544 16.2285 9.68152C16.2285 10.3215 16.0985 10.9415 15.8685 11.5015L18.7985 14.4315C20.2985 13.1815 21.4985 11.5415 22.2285 9.68152C20.4985 5.29152 16.2285 2.18152 11.2285 2.18152C9.82852 2.18152 8.48852 2.43152 7.22852 2.88152L9.39852 5.03152C9.96852 4.81152 10.5785 4.68152 11.2285 4.68152Z" fill="white"/>
</svg>
