<svg width="26" height="25" viewBox="0 0 26 25" fill="none" xmlns="http://www.w3.org/2000/svg">
<path d="M4.66671 5.20833V19.7917H21.3334V5.20833H4.66671ZM3.62504 3.125H22.375C22.6513 3.125 22.9163 3.23475 23.1116 3.4301C23.307 3.62545 23.4167 3.8904 23.4167 4.16667V20.8333C23.4167 21.1096 23.307 21.3746 23.1116 21.5699C22.9163 21.7653 22.6513 21.875 22.375 21.875H3.62504C3.34877 21.875 3.08382 21.7653 2.88847 21.5699C2.69312 21.3746 2.58337 21.1096 2.58337 20.8333V4.16667C2.58337 3.8904 2.69312 3.62545 2.88847 3.4301C3.08382 3.23475 3.34877 3.125 3.62504 3.125ZM15.9094 10.201L14.0417 8.33333H19.25V13.5417L17.3823 11.674L13.3573 15.699L11.148 13.4896L8.20108 16.4354L6.72817 14.9625L11.148 10.5427L13.3573 12.7531L15.9094 10.201Z" fill="#1A1E24"/>
</svg>
