<svg width="21" height="21" viewBox="0 0 21 21" fill="none" xmlns="http://www.w3.org/2000/svg">
<path d="M10.2731 0.258667C4.77307 0.258667 0.273071 4.75867 0.273071 10.2587C0.273071 15.7587 4.77307 20.2587 10.2731 20.2587C15.7731 20.2587 20.2731 15.7587 20.2731 10.2587C20.2731 4.75867 15.7731 0.258667 10.2731 0.258667ZM6.70307 12.6987L5.34307 12.0887C5.62307 11.5287 5.77307 10.9287 5.77307 10.3087C5.77307 9.64867 5.62307 9.01867 5.34307 8.42867L6.70307 7.81867C7.08307 8.62867 7.27307 9.45867 7.27307 10.3087C7.27307 11.0587 7.08307 11.8587 6.70307 12.6987ZM9.80307 14.1987L8.49307 13.5487C9.02307 12.4187 9.27307 11.2587 9.27307 10.1187C9.27307 8.98867 9.02307 7.94867 8.49307 6.96867L9.80307 6.21867C10.4631 7.37867 10.7731 8.67867 10.7731 10.1187C10.7731 11.5887 10.4631 12.9487 9.80307 14.1987ZM12.9531 15.6087L11.5831 14.9087C12.3731 13.3687 12.7731 11.8287 12.7731 10.2587C12.7731 8.68867 12.3731 7.12867 11.5831 5.56867L12.9531 4.90867C13.8231 6.68867 14.2731 8.47867 14.2731 10.2587C14.2731 12.0787 13.8231 13.8587 12.9531 15.6087Z" fill="#3E180B" fill-opacity="0.84"/>
</svg>
