<?xml version="1.0" encoding="utf-8"?>
<!-- Generator: Adobe Illustrator 23.0.3, SVG Export Plug-In . SVG Version: 6.00 Build 0)  -->
<svg version="1.1" id="Layer_1" xmlns="http://www.w3.org/2000/svg" xmlns:xlink="http://www.w3.org/1999/xlink" x="0px" y="0px"
	 viewBox="0 0 32 32" style="enable-background:new 0 0 32 32;" xml:space="preserve">
<style type="text/css">
	.st0{clip-path:url(#SVGID_2_);}
	.st1{clip-path:url(#SVGID_4_);}
</style>
<g>
	<g>
		<path d="M16,22.5c-5.5136719,0-10-4.4858398-10-10c0-0.5522461,0.4472656-1,1-1s1,0.4477539,1,1c0,4.4111328,3.5888672,8,8,8
			s8-3.5888672,8-8c0-0.5522461,0.4472656-1,1-1s1,0.4477539,1,1C26,18.0141602,21.5136719,22.5,16,22.5z"/>
	</g>
	<g>
		<path d="M16,4c-1.4471598,0-2.6203127,1.1731524-2.6203127,2.6203127v7.7593746C13.3796873,15.8268471,14.5528402,17,16,17
			s2.6203117-1.1731529,2.6203117-2.6203127V6.6203127C18.6203117,5.1731524,17.4471607,4,16,4z"/>
	</g>
	<g>
		<path d="M16,29c-0.5527344,0-1-0.4477539-1-1v-6.5c0-0.5522461,0.4472656-1,1-1s1,0.4477539,1,1V28
			C17,28.5522461,16.5527344,29,16,29z"/>
	</g>
	<g>
		<path d="M19.25,29h-6.5c-0.5527344,0-1-0.4477539-1-1s0.4472656-1,1-1h6.5c0.5527344,0,1,0.4477539,1,1S19.8027344,29,19.25,29z"
			/>
	</g>
</g>
</svg>
