<svg width="88" height="88" viewBox="0 0 88 88" fill="none" xmlns="http://www.w3.org/2000/svg">
<g filter="url(#filter0_d_307_137)">
<rect x="4" width="80" height="80" rx="40" fill="#EFF1FA" fill-opacity="0.09" shape-rendering="crispEdges"/>
<path d="M44.2083 29C45.3687 29 46.4815 29.4609 47.3019 30.2814C48.1224 31.1019 48.5833 32.2147 48.5833 33.375V42.125C48.5833 43.2853 48.1224 44.3981 47.3019 45.2186C46.4815 46.0391 45.3687 46.5 44.2083 46.5C43.048 46.5 41.9352 46.0391 41.1147 45.2186C40.2943 44.3981 39.8333 43.2853 39.8333 42.125V33.375C39.8333 32.2147 40.2943 31.1019 41.1147 30.2814C41.9352 29.4609 43.048 29 44.2083 29ZM54.4167 42.125C54.4167 47.2729 50.6104 51.5167 45.6667 52.2313V56.7083H42.75V52.2313C37.8063 51.5167 34 47.2729 34 42.125H36.9167C36.9167 44.0589 37.6849 45.9135 39.0523 47.281C40.4198 48.6484 42.2745 49.4167 44.2083 49.4167C46.1422 49.4167 47.9969 48.6484 49.3643 47.281C50.7318 45.9135 51.5 44.0589 51.5 42.125H54.4167Z" fill="#FFFAFA"/>
</g>
<defs>
<filter id="filter0_d_307_137" x="0" y="0" width="88" height="88" filterUnits="userSpaceOnUse" color-interpolation-filters="sRGB">
<feFlood flood-opacity="0" result="BackgroundImageFix"/>
<feColorMatrix in="SourceAlpha" type="matrix" values="0 0 0 0 0 0 0 0 0 0 0 0 0 0 0 0 0 0 127 0" result="hardAlpha"/>
<feOffset dy="4"/>
<feGaussianBlur stdDeviation="2"/>
<feComposite in2="hardAlpha" operator="out"/>
<feColorMatrix type="matrix" values="0 0 0 0 0 0 0 0 0 0 0 0 0 0 0 0 0 0 0.25 0"/>
<feBlend mode="normal" in2="BackgroundImageFix" result="effect1_dropShadow_307_137"/>
<feBlend mode="normal" in="SourceGraphic" in2="effect1_dropShadow_307_137" result="shape"/>
</filter>
</defs>
</svg>
