<svg width="25" height="25" viewBox="0 0 25 25" fill="none" xmlns="http://www.w3.org/2000/svg">
<path d="M7.89591 4.28165V20.3073H17.9119V4.28165H7.89591ZM6.8943 2.27844H18.9135C19.1792 2.27844 19.4339 2.38397 19.6218 2.5718C19.8096 2.75964 19.9151 3.0144 19.9151 3.28004V21.3089C19.9151 21.5745 19.8096 21.8293 19.6218 22.0171C19.4339 22.205 19.1792 22.3105 18.9135 22.3105H6.8943C6.62866 22.3105 6.3739 22.205 6.18606 22.0171C5.99823 21.8293 5.8927 21.5745 5.8927 21.3089V3.28004C5.8927 3.0144 5.99823 2.75964 6.18606 2.5718C6.3739 2.38397 6.62866 2.27844 6.8943 2.27844ZM12.9039 17.3025C13.1696 17.3025 13.4243 17.408 13.6122 17.5958C13.8 17.7837 13.9055 18.0384 13.9055 18.3041C13.9055 18.5697 13.8 18.8245 13.6122 19.0123C13.4243 19.2002 13.1696 19.3057 12.9039 19.3057C12.6383 19.3057 12.3835 19.2002 12.1957 19.0123C12.0078 18.8245 11.9023 18.5697 11.9023 18.3041C11.9023 18.0384 12.0078 17.7837 12.1957 17.5958C12.3835 17.408 12.6383 17.3025 12.9039 17.3025Z" fill="#1A1E24"/>
</svg>
