<svg width="25" height="25" viewBox="0 0 25 25" fill="none" xmlns="http://www.w3.org/2000/svg">
<path d="M16.3719 17.3023V16.3007H13.3671V13.2959H16.3719V15.2991H18.3751V17.3023H17.3735V19.3055H15.3703V21.3088H13.3671V18.3039H15.3703V17.3023H16.3719ZM21.3799 21.3088H17.3735V19.3055H19.3767V17.3023H21.3799V21.3088ZM3.35107 3.27991H11.3639V11.2927H3.35107V3.27991ZM5.35428 5.28311V9.28952H9.36069V5.28311H5.35428ZM13.3671 3.27991H21.3799V11.2927H13.3671V3.27991ZM15.3703 5.28311V9.28952H19.3767V5.28311H15.3703ZM3.35107 13.2959H11.3639V21.3088H3.35107V13.2959ZM5.35428 15.2991V19.3055H9.36069V15.2991H5.35428ZM18.3751 13.2959H21.3799V15.2991H18.3751V13.2959ZM6.35588 6.28472H8.35909V8.28792H6.35588V6.28472ZM6.35588 16.3007H8.35909V18.3039H6.35588V16.3007ZM16.3719 6.28472H18.3751V8.28792H16.3719V6.28472Z" fill="#1A1E24"/>
</svg>
