<svg width="25" height="25" viewBox="0 0 25 25" fill="none" xmlns="http://www.w3.org/2000/svg">
<path d="M3.63746 8.40108L4.97705 19.7917H20.0229L21.3625 8.40108L17.1854 11.1855L12.5 4.62608L7.81455 11.1855L3.63746 8.40108ZM2.91767 5.4167L7.29163 8.33337L11.652 2.2292C11.7484 2.09417 11.8756 1.9841 12.0231 1.90816C12.1706 1.83222 12.3341 1.7926 12.5 1.7926C12.6658 1.7926 12.8293 1.83222 12.9768 1.90816C13.1243 1.9841 13.2515 2.09417 13.3479 2.2292L17.7083 8.33337L22.0833 5.4167C22.2489 5.30654 22.4425 5.24608 22.6414 5.24247C22.8402 5.23885 23.0359 5.29224 23.2054 5.39631C23.3749 5.50038 23.511 5.65079 23.5977 5.82976C23.6844 6.00873 23.7181 6.20879 23.6948 6.40628L21.9833 20.9552C21.9534 21.2086 21.8316 21.4422 21.641 21.6118C21.4503 21.7813 21.2041 21.875 20.9489 21.875H4.051C3.79586 21.875 3.54961 21.7813 3.35895 21.6118C3.16829 21.4422 3.04648 21.2086 3.01663 20.9552L1.30517 6.40524C1.28205 6.20783 1.31588 6.00792 1.40269 5.82911C1.4895 5.65031 1.62565 5.50007 1.79508 5.39614C1.9645 5.29221 2.16013 5.23892 2.35886 5.24256C2.55759 5.2462 2.75113 5.30663 2.91663 5.4167H2.91767ZM12.5 15.625C11.9474 15.625 11.4175 15.4055 11.0268 15.0148C10.6361 14.6241 10.4166 14.0942 10.4166 13.5417C10.4166 12.9892 10.6361 12.4593 11.0268 12.0686C11.4175 11.6779 11.9474 11.4584 12.5 11.4584C13.0525 11.4584 13.5824 11.6779 13.9731 12.0686C14.3638 12.4593 14.5833 12.9892 14.5833 13.5417C14.5833 14.0942 14.3638 14.6241 13.9731 15.0148C13.5824 15.4055 13.0525 15.625 12.5 15.625Z" fill="#1A1E24"/>
</svg>
