<svg width="25" height="25" viewBox="0 0 25 25" fill="none" xmlns="http://www.w3.org/2000/svg">
<path d="M14.2675 14.6023V16.6887C13.364 16.3692 12.3971 16.2712 11.4479 16.4029C10.4986 16.5346 9.59488 16.8922 8.81247 17.4455C8.03006 17.9989 7.39185 18.7319 6.95144 19.583C6.51102 20.4342 6.28126 21.3785 6.28144 22.3368L4.28491 22.3358C4.2846 21.1168 4.56335 19.914 5.09979 18.8193C5.63624 17.7247 6.41614 16.7675 7.37975 16.0209C8.34335 15.2743 9.46508 14.7581 10.659 14.5121C11.8529 14.266 13.0873 14.2975 14.2675 14.6023ZM12.271 13.3525C8.96178 13.3525 6.28144 10.6721 6.28144 7.36287C6.28144 4.05363 8.96178 1.37329 12.271 1.37329C15.5803 1.37329 18.2606 4.05363 18.2606 7.36287C18.2606 10.6721 15.5803 13.3525 12.271 13.3525ZM12.271 11.3559C14.4772 11.3559 16.2641 9.56904 16.2641 7.36287C16.2641 5.15671 14.4772 3.36982 12.271 3.36982C10.0649 3.36982 8.27797 5.15671 8.27797 7.36287C8.27797 9.56904 10.0649 11.3559 12.271 11.3559ZM19.6761 17.3455H23.2559V19.342H19.6761L21.502 21.1669L20.0904 22.5794L15.8548 18.3438L20.0904 14.1081L21.502 15.5207L19.6761 17.3455Z" fill="#1A1E24"/>
</svg>
