<svg width="35" height="35" viewBox="0 0 35 35" fill="none" xmlns="http://www.w3.org/2000/svg">
<rect width="35" height="35" rx="17.5" fill="white" fill-opacity="0.11"/>
<path d="M17.5 20.4166C16.7264 20.4166 15.9846 20.1093 15.4376 19.5624C14.8906 19.0154 14.5833 18.2735 14.5833 17.5C14.5833 16.7264 14.8906 15.9845 15.4376 15.4376C15.9846 14.8906 16.7264 14.5833 17.5 14.5833C18.2735 14.5833 19.0154 14.8906 19.5624 15.4376C20.1094 15.9845 20.4167 16.7264 20.4167 17.5C20.4167 18.2735 20.1094 19.0154 19.5624 19.5624C19.0154 20.1093 18.2735 20.4166 17.5 20.4166ZM23.6917 18.3083C23.725 18.0416 23.75 17.775 23.75 17.5C23.75 17.225 23.725 16.95 23.6917 16.6666L25.45 15.3083C25.6083 15.1833 25.65 14.9583 25.55 14.775L23.8833 11.8916C23.7833 11.7083 23.5583 11.6333 23.375 11.7083L21.3 12.5416C20.8667 12.2166 20.4167 11.9333 19.8917 11.725L19.5833 9.51663C19.55 9.31663 19.375 9.16663 19.1667 9.16663H15.8333C15.625 9.16663 15.45 9.31663 15.4167 9.51663L15.1083 11.725C14.5833 11.9333 14.1333 12.2166 13.7 12.5416L11.625 11.7083C11.4417 11.6333 11.2167 11.7083 11.1167 11.8916L9.44999 14.775C9.34165 14.9583 9.39165 15.1833 9.54999 15.3083L11.3083 16.6666C11.275 16.95 11.25 17.225 11.25 17.5C11.25 17.775 11.275 18.0416 11.3083 18.3083L9.54999 19.6916C9.39165 19.8166 9.34165 20.0416 9.44999 20.225L11.1167 23.1083C11.2167 23.2916 11.4417 23.3583 11.625 23.2916L13.7 22.45C14.1333 22.7833 14.5833 23.0666 15.1083 23.275L15.4167 25.4833C15.45 25.6833 15.625 25.8333 15.8333 25.8333H19.1667C19.375 25.8333 19.55 25.6833 19.5833 25.4833L19.8917 23.275C20.4167 23.0583 20.8667 22.7833 21.3 22.45L23.375 23.2916C23.5583 23.3583 23.7833 23.2916 23.8833 23.1083L25.55 20.225C25.65 20.0416 25.6083 19.8166 25.45 19.6916L23.6917 18.3083Z" fill="white"/>
</svg>
