<svg width="37" height="13" viewBox="0 0 37 13" fill="none" xmlns="http://www.w3.org/2000/svg">
<g clip-path="url(#clip0_1_39)">
<mask id="mask0_1_39" style="mask-type:luminance" maskUnits="userSpaceOnUse" x="-3" y="-5" width="43" height="22">
<path d="M-2.09326 -4.05488H39.4413V16.7124H-2.09326V-4.05488Z" fill="white"/>
</mask>
<g mask="url(#mask0_1_39)">
<path d="M1.17338 10.8411H1.4397L1.19223 11.8747C1.1555 12.0281 1.16242 12.1435 1.21319 12.2206C1.26376 12.2977 1.35788 12.3362 1.49547 12.3362C1.63219 12.3362 1.74429 12.2977 1.83188 12.2206C1.91956 12.1435 1.98177 12.0281 2.0185 11.8747L2.26588 10.8411H2.53566L2.28212 11.9003C2.22703 12.1305 2.12887 12.3028 1.98831 12.417C1.84765 12.5314 1.66324 12.5885 1.43509 12.5885C1.20674 12.5885 1.05012 12.5315 0.964844 12.4176C0.879467 12.3037 0.864565 12.1312 0.919848 11.9003L1.17338 10.8411Z" fill="#1A1E24"/>
<path d="M2.49988 12.5432L2.92349 10.7737L3.72842 11.8142C3.74995 11.8436 3.77168 11.875 3.79312 11.9084C3.81456 11.9417 3.83648 11.9792 3.85898 12.0211L4.14155 10.8411H4.39085L3.96753 12.6093L3.14568 11.5501C3.12367 11.5216 3.10319 11.4914 3.08405 11.4596C3.06473 11.4277 3.04733 11.3944 3.03137 11.3596L2.74803 12.5432H2.49988Z" fill="#1A1E24"/>
<path d="M4.36877 12.5432L4.77624 10.8411H5.04583L4.63846 12.5432H4.36877Z" fill="#1A1E24"/>
<path d="M5.02612 12.5432L5.43358 10.8411H6.35946L6.30321 11.0759H5.64703L5.5454 11.5002H6.20159L6.14352 11.7432H5.48723L5.29581 12.5432H5.02612Z" fill="#1A1E24"/>
<path d="M6.24902 12.5432L6.65649 10.8411H6.92608L6.51871 12.5432H6.24902Z" fill="#1A1E24"/>
<path d="M6.90637 12.5432L7.31383 10.8411H8.23971L8.18346 11.0759H7.52728L7.42507 11.5025H8.08126L8.02319 11.7456H7.367L7.23528 12.2955H7.89147L7.83225 12.5432H6.90637Z" fill="#1A1E24"/>
<path d="M8.47133 12.2931H8.69804C8.82265 12.2931 8.91822 12.2846 8.98465 12.2676C9.05109 12.2505 9.11204 12.2218 9.1679 12.1815C9.24376 12.1266 9.30712 12.0582 9.35808 11.9763C9.40894 11.8946 9.44749 11.7993 9.47345 11.6908C9.49931 11.5822 9.50643 11.4873 9.4947 11.4056C9.48287 11.3237 9.4523 11.2554 9.40279 11.2003C9.36558 11.1601 9.31645 11.1312 9.25511 11.1141C9.19367 11.0972 9.09368 11.0886 8.95465 11.0886H8.85716H8.75967L8.47133 12.2931ZM8.14185 12.5432L8.54931 10.841H8.91302C9.14954 10.841 9.31299 10.8531 9.40355 10.8775C9.49393 10.902 9.56864 10.943 9.62738 11.0003C9.70535 11.0755 9.75496 11.172 9.77631 11.2897C9.79756 11.4075 9.79006 11.5421 9.75391 11.6932C9.71776 11.8443 9.66093 11.9783 9.58344 12.0949C9.50614 12.2116 9.41028 12.3079 9.29626 12.3838C9.21001 12.4412 9.11752 12.4821 9.01926 12.5066C8.92072 12.5309 8.77381 12.5432 8.57805 12.5432H8.50547H8.14185Z" fill="#1A1E24"/>
<path d="M11.067 11.5526H11.1362C11.2857 11.5526 11.3894 11.5358 11.4473 11.5025C11.5053 11.4693 11.5442 11.4103 11.5644 11.3258C11.5861 11.2352 11.5749 11.1711 11.5305 11.134C11.4861 11.0968 11.3926 11.0781 11.2498 11.0781H11.1806L11.067 11.5526ZM10.9957 11.7791L10.8128 12.5432H10.5602L10.9677 10.8411H11.3757C11.4965 10.8411 11.5839 10.8478 11.6378 10.8614C11.6914 10.8748 11.7357 10.8972 11.7707 10.9283C11.8133 10.9678 11.8413 11.021 11.8548 11.0881C11.8681 11.1552 11.8653 11.229 11.846 11.3095C11.8266 11.3901 11.7941 11.4646 11.7483 11.5328C11.7026 11.601 11.6489 11.6545 11.5876 11.6932C11.5378 11.7243 11.4829 11.7464 11.4227 11.7594C11.3624 11.7727 11.2719 11.7791 11.1511 11.7791H11.0979H10.9957Z" fill="#1A1E24"/>
<path d="M12.1791 11.8747H12.6414L12.5642 11.4863C12.5606 11.4616 12.5571 11.4331 12.5541 11.4009C12.5513 11.3687 12.5494 11.3328 12.5482 11.2933C12.5303 11.3305 12.5123 11.3652 12.4943 11.3975C12.4764 11.4296 12.459 11.4592 12.4419 11.4863L12.1791 11.8747ZM12.7648 12.5432L12.6814 12.1049H12.0241L11.7265 12.5432H11.4434L12.6703 10.7737L13.0492 12.5432H12.7648Z" fill="#1A1E24"/>
<path d="M13.4356 12.5432L13.622 11.7642L13.2843 10.8411H13.5676L13.7772 11.4189C13.782 11.4337 13.7878 11.453 13.7944 11.4771C13.8012 11.5011 13.8077 11.527 13.8139 11.5549C13.8308 11.5278 13.8482 11.5021 13.8656 11.4781C13.883 11.4541 13.9006 11.4321 13.9184 11.4119L14.4119 10.8411H14.6817L13.8894 11.7642L13.703 12.5432H13.4356Z" fill="#1A1E24"/>
<path d="M16.0088 11.7025C16.0089 11.6893 16.0128 11.653 16.0203 11.5933C16.0261 11.5436 16.0306 11.5025 16.0338 11.4699C16.0178 11.5087 15.9988 11.5476 15.9771 11.5862C15.9553 11.625 15.9303 11.6645 15.9017 11.7049L15.2505 12.6118L15.0381 11.6863C15.029 11.6483 15.0221 11.6114 15.0175 11.5759C15.0129 11.5402 15.0097 11.5049 15.0082 11.4699C14.9989 11.5057 14.9872 11.543 14.9729 11.5822C14.9586 11.6213 14.9414 11.6623 14.9213 11.7049L14.5427 12.5432H14.2947L15.1114 10.7688L15.3439 11.8432C15.3473 11.8603 15.3522 11.8886 15.3581 11.9281C15.3641 11.9676 15.3711 12.0165 15.3793 12.0746C15.4068 12.0257 15.4464 11.9638 15.4985 11.8886C15.5124 11.8684 15.5229 11.8529 15.53 11.8421L16.2653 10.7688L16.2417 12.5432H15.9912L16.0088 11.7025Z" fill="#1A1E24"/>
<path d="M16.457 12.5432L16.8646 10.8411H17.7905L17.7342 11.0759H17.0779L16.9758 11.5025H17.632L17.5739 11.7456H16.9177L16.786 12.2955H17.4422L17.3828 12.5432H16.457Z" fill="#1A1E24"/>
<path d="M17.6925 12.5432L18.1161 10.7737L18.921 11.8142C18.9426 11.8436 18.9643 11.875 18.9857 11.9084C19.0072 11.9417 19.0291 11.9792 19.0516 12.0211L19.3342 10.8411H19.5836L19.1602 12.6093L18.3383 11.5501C18.3163 11.5216 18.2958 11.4914 18.2767 11.4596C18.2574 11.4277 18.24 11.3944 18.224 11.3596L17.9407 12.5432H17.6925Z" fill="#1A1E24"/>
<path d="M20.444 11.0759L20.0928 12.5432H19.8231L20.1742 11.0759H19.7334L19.7896 10.8411H20.9388L20.8826 11.0759H20.444Z" fill="#1A1E24"/>
<path d="M20.7239 12.2025L20.9637 12.1003C20.9661 12.1761 20.9896 12.2341 21.0344 12.274C21.0792 12.314 21.1439 12.3339 21.2287 12.3339C21.3087 12.3339 21.3779 12.311 21.436 12.2653C21.4942 12.2196 21.5325 12.1583 21.5509 12.0816C21.5748 11.9815 21.5151 11.8924 21.3723 11.8142C21.3523 11.8026 21.337 11.7941 21.3264 11.7886C21.1653 11.6971 21.0632 11.6144 21.0202 11.5403C20.9772 11.4663 20.9683 11.3758 20.9939 11.2689C21.0271 11.1302 21.1 11.0178 21.2124 10.9317C21.3247 10.8457 21.4553 10.8026 21.6042 10.8026C21.7266 10.8026 21.8233 10.8268 21.8939 10.8753C21.9647 10.9238 22.0051 10.9934 22.0151 11.084L21.7777 11.1957C21.7571 11.1422 21.73 11.1031 21.6963 11.0782C21.6626 11.0534 21.6199 11.041 21.5687 11.041C21.4962 11.041 21.4339 11.0605 21.3819 11.099C21.3301 11.1379 21.2962 11.1898 21.2805 11.255C21.2561 11.3573 21.327 11.4525 21.4932 11.5409C21.506 11.5478 21.516 11.5534 21.5232 11.5573C21.6687 11.6346 21.7633 11.7105 21.8066 11.7845C21.8501 11.8587 21.8586 11.9511 21.832 12.0618C21.7935 12.2232 21.7134 12.3512 21.5916 12.4461C21.4699 12.541 21.3247 12.5885 21.1564 12.5885C21.015 12.5885 20.9072 12.5552 20.833 12.4885C20.7585 12.4219 20.7222 12.3266 20.7239 12.2025Z" fill="#1A1E24"/>
<path d="M22.7166 12.5432L23.124 10.8411H23.3937L22.9862 12.5432H22.7166Z" fill="#1A1E24"/>
<path d="M23.3738 12.5432L23.7974 10.7737L24.6023 11.8142C24.6239 11.8436 24.6456 11.875 24.667 11.9084C24.6885 11.9417 24.7104 11.9792 24.7329 12.0211L25.0155 10.8411H25.2648L24.8414 12.6093L24.0196 11.5501C23.9976 11.5216 23.977 11.4914 23.9579 11.4596C23.9386 11.4277 23.9211 11.3944 23.9052 11.3596L23.6219 12.5432H23.3738Z" fill="#1A1E24"/>
<path d="M26.1254 11.0759L25.7741 12.5432H25.5045L25.8556 11.0759H25.4148L25.471 10.8411H26.6202L26.564 11.0759H26.1254Z" fill="#1A1E24"/>
<path d="M26.4191 12.5432L26.8265 10.8411H27.7524L27.6963 11.0759H27.0401L26.9379 11.5025H27.5941L27.5359 11.7456H26.8797L26.7481 12.2955H27.4043L27.3449 12.5432H26.4191Z" fill="#1A1E24"/>
<path d="M28.1579 11.5665H28.2068C28.3495 11.5665 28.4484 11.5496 28.5034 11.5154C28.5584 11.4813 28.5964 11.4209 28.617 11.334C28.6395 11.2403 28.6303 11.1741 28.589 11.1358C28.5482 11.0973 28.4596 11.0782 28.3237 11.0782H28.2748L28.1579 11.5665ZM28.0895 11.7816L27.9071 12.5432H27.6544L28.062 10.8411H28.4382C28.5485 10.8411 28.6323 10.8484 28.6895 10.8632C28.7468 10.8779 28.793 10.9022 28.8279 10.9364C28.8694 10.9774 28.8963 11.0307 28.9088 11.0958C28.921 11.1607 28.9179 11.2321 28.8994 11.3095C28.8668 11.4459 28.8091 11.5527 28.7264 11.6299C28.6437 11.7069 28.5378 11.7534 28.4087 11.7688L28.7946 12.5432H28.4896L28.12 11.7816H28.0895Z" fill="#1A1E24"/>
<path d="M28.9543 12.5432L29.3618 10.8411H30.2877L30.2315 11.0759H29.5752L29.4736 11.5002H30.1299L30.0717 11.7432H29.4156L29.224 12.5432H28.9543Z" fill="#1A1E24"/>
<path d="M30.6003 11.8747H31.0628L30.9856 11.4863C30.9818 11.4616 30.9785 11.4331 30.9755 11.4009C30.9727 11.3687 30.9708 11.3328 30.9695 11.2933C30.9515 11.3305 30.9336 11.3652 30.9157 11.3975C30.8978 11.4296 30.8803 11.4592 30.8632 11.4863L30.6003 11.8747ZM31.1861 12.5432L31.1028 12.1049H30.4454L30.1479 12.5432H29.8646L31.0915 10.7737L31.4705 12.5432H31.1861Z" fill="#1A1E24"/>
<path d="M33.226 11.2548C33.1657 11.1882 33.0971 11.1382 33.02 11.1049C32.943 11.0717 32.8577 11.0549 32.7639 11.0549C32.5827 11.0549 32.4208 11.1146 32.2786 11.2339C32.1362 11.3533 32.0424 11.5079 31.9969 11.6979C31.9529 11.8816 31.9721 12.033 32.0542 12.1524C32.1363 12.2718 32.2617 12.3316 32.43 12.3316C32.5284 12.3316 32.6261 12.3137 32.7234 12.278C32.8207 12.2424 32.9188 12.1885 33.0176 12.1163L32.9427 12.4292C32.8574 12.4826 32.7688 12.5226 32.6772 12.5489C32.5855 12.5752 32.4898 12.5884 32.3901 12.5884C32.2632 12.5884 32.1509 12.5671 32.0535 12.5244C31.956 12.4819 31.8763 12.4192 31.8147 12.3361C31.7533 12.2548 31.714 12.1589 31.6972 12.0483C31.6801 11.938 31.6865 11.8203 31.7163 11.6954C31.7462 11.5707 31.7961 11.4535 31.8658 11.3438C31.9354 11.2341 32.0215 11.1377 32.1236 11.0549C32.2261 10.9711 32.3357 10.9079 32.4524 10.8647C32.5692 10.8218 32.6897 10.8002 32.8136 10.8002C32.9111 10.8002 33.0005 10.8148 33.082 10.8439C33.1634 10.8729 33.2386 10.9168 33.3077 10.9759L33.226 11.2548Z" fill="#1A1E24"/>
<path d="M33.2522 12.5432L33.6597 10.8411H34.5855L34.5293 11.0759H33.8732L33.771 11.5025H34.4272L34.369 11.7456H33.7128L33.5812 12.2955H34.2374L34.1781 12.5432H33.2522Z" fill="#1A1E24"/>
<path d="M28.333 9.35779H26.479L29.0574 0.0456781H30.9115L28.333 9.35779Z" fill="#1A1E24"/>
<path d="M27.3706 0.339962C27.242 0.162767 27.0438 0.0733519 26.7745 0.0733519H16.5796L16.0747 1.89722H17.9297V1.89616H25.3491L24.8094 3.84521H17.3898L17.3904 3.84117H15.5362L13.9972 9.39709H15.8524L16.8852 5.66802H25.2254C25.4858 5.66802 25.731 5.57918 25.9616 5.40151C26.1916 5.22364 26.3431 5.00433 26.4156 4.74243L27.4483 1.01259C27.5237 0.741944 27.4977 0.517349 27.3706 0.339962Z" fill="#1A1E24"/>
<path d="M12.9169 8.77648C12.8145 9.1452 12.4787 9.40027 12.096 9.40027H2.53044C2.26979 9.40027 2.07606 9.31143 1.94867 9.13395C1.82137 8.95627 1.79407 8.73648 1.86685 8.47468L4.20086 0.0728731H6.05655L3.97184 7.57698H11.3948L13.4795 0.0728731H15.3348L12.9169 8.77648Z" fill="#1A1E24"/>
<path d="M34.1136 0.0630798L36.4608 4.7312L31.5265 9.39807L34.1136 0.0630798Z" fill="#1A1E24"/>
<path d="M32.4681 0.0630798L34.8137 4.7312L29.8773 9.39807L32.4681 0.0630798Z" fill="#1A1E24"/>
</g>
</g>
<defs>
<clipPath id="clip0_1_39">
<rect width="35.5769" height="12.5688" fill="white" transform="translate(0.884521 0.0444336)"/>
</clipPath>
</defs>
</svg>
